<svg width="512" height="512" viewBox="0 0 512 512" fill="none" xmlns="http://www.w3.org/2000/svg">
<path d="M486.88 448.09H467.14V199.48C467.137 198.566 466.891 197.67 466.427 196.882C465.963 196.095 465.298 195.445 464.5 195L265.8 83.44C272.9 81.77 283.68 80.66 292.88 85.67C301.317 90.3109 310.771 92.7913 320.4 92.89C331.55 92.89 341.3 89.15 346.2 81.89C346.773 81.0386 347.079 80.0361 347.08 79.01V24.76C347.078 23.6567 346.723 22.583 346.067 21.6963C345.41 20.8096 344.487 20.1568 343.432 19.8335C342.377 19.5102 341.246 19.5335 340.206 19.9001C339.165 20.2666 338.269 20.957 337.65 21.87C332.59 29.38 314.08 31.24 297.81 22.38C278.14 11.65 254.89 21.75 253.9 22.19C252.991 22.5961 252.219 23.2572 251.677 24.0931C251.136 24.9291 250.849 25.9041 250.85 26.9V80.82L47.49 195C46.6931 195.448 46.0297 196.1 45.5676 196.889C45.1055 197.678 44.8613 198.576 44.86 199.49V448.09H25.12C23.7576 448.098 22.4539 448.645 21.4943 449.613C20.5346 450.58 19.9973 451.888 20 453.25V489.39C19.9987 490.067 20.131 490.737 20.3893 491.362C20.6477 491.988 21.027 492.556 21.5055 493.035C21.984 493.513 22.5522 493.892 23.1776 494.151C23.8031 494.409 24.4733 494.541 25.15 494.54H486.88C487.557 494.541 488.227 494.409 488.852 494.151C489.478 493.892 490.046 493.513 490.525 493.035C491.003 492.556 491.382 491.988 491.641 491.362C491.899 490.737 492.031 490.067 492.03 489.39V453.25C492.031 452.573 491.899 451.902 491.641 451.276C491.383 450.65 491.003 450.081 490.525 449.602C490.047 449.123 489.479 448.742 488.853 448.483C488.228 448.224 487.557 448.09 486.88 448.09V448.09ZM261.15 30.47C267.23 28.47 281.24 25.07 292.88 31.47C307.88 39.64 325.26 40.77 336.77 35.42V77.23C330.7 83.8 313.25 85.04 297.77 76.62C291.448 73.2845 284.387 71.5958 277.24 71.71C271.8 71.7688 266.391 72.5386 261.15 74V30.47ZM55.15 202.47L256 89.75L456.83 202.49V448.09H426.76V267.76C426.739 256.383 422.21 245.479 414.166 237.434C406.121 229.39 395.217 224.861 383.84 224.84H383.08C371.703 224.861 360.799 229.39 352.754 237.434C344.71 245.479 340.181 256.383 340.16 267.76V448.09H299.29V267.76C299.269 256.385 294.742 245.482 286.699 237.438C278.657 229.394 267.755 224.864 256.38 224.84H255.62C244.243 224.861 233.339 229.39 225.294 237.434C217.25 245.479 212.721 256.383 212.7 267.76V448.09H171.83V267.76C171.809 256.385 167.282 245.482 159.239 237.438C151.197 229.394 140.295 224.864 128.92 224.84H128.16C116.783 224.861 105.879 229.39 97.8343 237.434C89.7899 245.479 85.2612 256.383 85.24 267.76V448.09H55.16L55.15 202.47ZM416.44 448.07H350.44V267.76C350.448 259.111 353.887 250.819 360.003 244.703C366.119 238.587 374.411 235.148 383.06 235.14H383.82C392.467 235.151 400.757 238.591 406.871 244.706C412.984 250.822 416.422 259.113 416.43 267.76L416.44 448.07ZM288.98 448.07H223V267.76C223.008 259.111 226.447 250.819 232.563 244.703C238.679 238.587 246.971 235.148 255.62 235.14H256.38C265.029 235.148 273.321 238.587 279.437 244.703C285.553 250.819 288.992 259.111 289 267.76L288.98 448.07ZM161.52 448.07H95.52V267.76C95.5279 259.113 98.9659 250.822 105.079 244.706C111.193 238.591 119.483 235.151 128.13 235.14H128.89C137.537 235.151 145.827 238.591 151.941 244.706C158.054 250.822 161.492 259.113 161.5 267.76L161.52 448.07ZM481.72 484.22H30.27V458.4H481.73L481.72 484.22Z" fill="#FF5556"/>
<path d="M256 201.86C264.568 201.86 272.943 199.319 280.067 194.559C287.191 189.799 292.744 183.034 296.022 175.118C299.301 167.202 300.159 158.492 298.488 150.089C296.816 141.685 292.69 133.967 286.632 127.908C280.573 121.85 272.855 117.724 264.451 116.052C256.048 114.381 247.338 115.239 239.422 118.518C231.506 121.796 224.741 127.349 219.981 134.473C215.221 141.597 212.68 149.972 212.68 158.54C212.693 170.025 217.262 181.036 225.383 189.157C233.504 197.278 244.515 201.847 256 201.86V201.86ZM256 125.53C262.527 125.53 268.907 127.465 274.334 131.092C279.761 134.718 283.99 139.871 286.488 145.901C288.986 151.931 289.639 158.567 288.366 164.968C287.093 171.369 283.95 177.249 279.335 181.865C274.719 186.48 268.839 189.623 262.438 190.896C256.037 192.169 249.401 191.516 243.371 189.018C237.341 186.52 232.188 182.291 228.562 176.864C224.935 171.437 223 165.057 223 158.53C223.016 149.783 226.498 141.398 232.683 135.213C238.868 129.028 247.253 125.546 256 125.53V125.53Z" fill="#FF5556"/>
<path d="M256 163.69H272.42C273.786 163.69 275.096 163.147 276.062 162.182C277.027 161.216 277.57 159.906 277.57 158.54C277.57 157.174 277.027 155.864 276.062 154.898C275.096 153.933 273.786 153.39 272.42 153.39H261.15V136C261.15 134.634 260.607 133.324 259.642 132.358C258.676 131.393 257.366 130.85 256 130.85C254.634 130.85 253.324 131.393 252.358 132.358C251.393 133.324 250.85 134.634 250.85 136V158.5C250.843 159.18 250.972 159.855 251.228 160.485C251.484 161.115 251.862 161.688 252.341 162.17C252.82 162.653 253.39 163.036 254.018 163.297C254.646 163.558 255.32 163.691 256 163.69V163.69Z" fill="#FF5556"/>
</svg>
