<svg width="256" height="256" viewBox="0 0 256 256" fill="none" xmlns="http://www.w3.org/2000/svg">
<path d="M104 176C121.673 176 136 161.673 136 144C136 126.327 121.673 112 104 112C86.3269 112 72 126.327 72 144C72 161.673 86.3269 176 104 176Z" stroke="#FF5556" stroke-width="8" stroke-linecap="round" stroke-linejoin="round"/>
<path d="M53.4 208C57.9409 198.423 65.1062 190.332 74.0632 184.666C83.0203 179 93.4014 175.992 104 175.992C114.599 175.992 124.98 179 133.937 184.666C142.894 190.332 150.059 198.423 154.6 208H216C218.122 208 220.157 207.157 221.657 205.657C223.157 204.157 224 202.122 224 200V56C224 53.8783 223.157 51.8434 221.657 50.3431C220.157 48.8429 218.122 48 216 48H40C37.8783 48 35.8434 48.8429 34.3431 50.3431C32.8429 51.8434 32 53.8783 32 56V200C32 202.122 32.8429 204.157 34.3431 205.657C35.8434 207.157 37.8783 208 40 208H53.4Z" stroke="#FF5556" stroke-width="8" stroke-linecap="round" stroke-linejoin="round"/>
<path d="M176 176H192V80H64V96" stroke="#FF5556" stroke-width="8" stroke-linecap="round" stroke-linejoin="round"/>
</svg>
